# xmcd
#
# Track frame offsets:
#	150
#	15695
#	30395
#	46470
#	61432
#	75907
#	92482
#	107614
#
# Disc length: 1662 seconds
#
# Revision: 1
# Processed by: cddbd v1.5.2PL0 Copyright (c) Steve Scherf et al.
# Submitted via: audiograbber 1.83.01
#
DISCID=51067c08
DTITLE=Various Artist - CDX 656
DYEAR=2017
DGENRE=Country
TTITLE0=Chris Janson - Drunk Girl
TTITLE1=Keith Urban - Female
TTITLE2=Kip Moore - Last Shot (Radio Edit)
TTITLE3=Michael Tyler - Hey Mama
TTITLE4=AC Jones - Buses And Trains
TTITLE5=Remington - Dallas Until I Die
TTITLE6=SaraBeth - Something About It
TTITLE7=Darren Taylor - The Richest Man Alive
EXTD=
EXTT0=
EXTT1=
EXTT2=
EXTT3=
EXTT4=
EXTT5=
EXTT6=
EXTT7=
PLAYORDER=
